<svg viewBox="0 0 128 128" xmlns="http://www.w3.org/2000/svg"><g fill="#7f6cb1"><path d="m0 42.6h20.2l-20.2 19.9z"/><path d="m0 85.4 42.8-42.8h-21.2l-21.6 21.3z"/><path d="m42.8 85.4-21.2-20.2-20.2 20.2z"/><path d="m50 75.2v-22.8h5.1v9.7l9.3-9.7h5.8l-9.3 9.7 9.3 13.1h-5.8l-6.8-9.5-2.5 2.5v7z"/><path d="m77.5 57.8c-5.1 0-9.2 3.9-9.2 8.7s4.1 8.7 9.2 8.7 9.2-3.9 9.2-8.7-4.1-8.7-9.2-8.7zm0 13.6c-2.7 0-4.9-2.2-4.9-4.9s2.2-4.9 4.9-4.9 4.9 2.2 4.9 4.9-2.2 4.9-4.9 4.9z"/><path d="m87.9 53.4h5.1v4.5h4v4.2h-4v8.2s1.5 2.1 4 0v4.5s-4 2-7.5 0c0 0-1.6-1.6-1.6-3.5 0-1.8 0-9.2 0-9.2h-2v-4.4l2 .1z"/><path d="m98.5 51.4h4.9v23.7h-4.9z"/><path d="m105.2 51.4h5v4.2h-5z"/><path d="m105.2 57.9h5v17.3h-5z"/><path d="m111.9 57.9h5.1v2.7s4.7-7.2 10.4 0l.5 1.5v13.1h-5v-10.6s-2.8-5.3-5.9 0v10.6h-5.1z"/></g></svg>